<svg width="128" height="28" viewBox="0 0 128 28" fill="none" xmlns="http://www.w3.org/2000/svg">
<g filter="url(#filter0_i_15_120)">
<rect width="128" height="28" rx="3" fill="#EE8F1E"/>
</g>
<path fill-rule="evenodd" clip-rule="evenodd" d="M19.6568 9.70711C19.2663 9.31658 18.6331 9.31658 18.2426 9.70711C17.8521 10.0976 17.8521 10.7308 18.2426 11.1213L21.071 13.9497L18.2426 16.7782C17.8521 17.1687 17.8521 17.8019 18.2426 18.1924C18.6331 18.5829 19.2663 18.5829 19.6568 18.1924L23.1923 14.6569C23.5829 14.2663 23.5829 13.6332 23.1923 13.2426L19.6568 9.70711Z" fill="white"/>
<path d="M51.583 15.8467H48.5V18.6768H46.5791V15.8467H43.626V14.3086H46.5791V12.8252H43.9336V11.2803H46.5791V9.94043H43.9062V8.42969H45.0342C44.6742 7.5 44.4395 6.92578 44.3301 6.70703L46.1074 6.32422C46.2715 6.71159 46.5563 7.41341 46.9619 8.42969H48.1992L49.0605 6.29688L50.9199 6.73438L50.0381 8.42969H51.5078V9.94043H48.5V11.2803H51.1318V12.8252H48.5V14.3086H51.583V15.8467ZM43.2227 7.88281H38.9775V6.66602H43.2227V7.88281ZM43.5576 9.82422H38.5059V8.45703H43.5576V9.82422ZM43.1543 11.6221H38.9912V10.4258H43.1543V11.6221ZM43.1543 13.4541H38.9912V12.251H43.1543V13.4541ZM43.2637 18.1709H40.4336V18.6768H38.7998V14.083H43.2637V18.1709ZM41.6094 16.9678V15.2998H40.4951V16.9678H41.6094ZM56.3271 18.7861H54.6318V13.4336C53.693 13.5202 52.998 13.5726 52.5469 13.5908L52.3896 12.1758C52.6357 12.1758 52.9798 12.1689 53.4219 12.1553C53.75 11.7451 54.0371 11.3737 54.2832 11.041C53.7728 10.4668 53.1234 9.77637 52.335 8.96973L53.333 7.89648L53.5723 8.13574C54.0508 7.42025 54.4268 6.7526 54.7002 6.13281L56.2246 6.69336C55.7188 7.57292 55.1628 8.39323 54.5566 9.1543L55.1582 9.80371C55.7917 8.87858 56.236 8.14486 56.4912 7.60254L57.9746 8.25879C57.1543 9.53939 56.2337 10.8109 55.2129 12.0732C55.8236 12.0368 56.2998 12.0049 56.6416 11.9775C56.4821 11.4033 56.3727 11.0456 56.3135 10.9043L57.5713 10.5557C57.7718 11.1846 58.0247 12.0801 58.3301 13.2422L57.0381 13.5908C57.0335 13.527 57.0039 13.3857 56.9492 13.167L56.3271 13.2559V18.7861ZM63.2588 17.9043H59.9775V18.6221H58.3574V6.61816H64.9199V18.6221H63.2588V17.9043ZM60.8047 8.06055H59.9775V11.2119L60.8047 11.2051V8.06055ZM63.2588 11.1982V8.06055H62.3906V11.2051L63.2588 11.1982ZM62.3906 16.4141L63.2588 16.4072V12.6953H62.3906V16.4141ZM59.9775 16.4141H60.8047V12.6953H59.9775V16.4141ZM58.2139 16.7012L56.9561 16.9268C56.7236 15.7145 56.5846 14.7575 56.5391 14.0557L57.7695 13.8301C57.7741 13.8483 57.9222 14.8053 58.2139 16.7012ZM54.3379 13.96C54.2832 14.6071 54.1715 15.3431 54.0029 16.168C53.8343 16.9883 53.6702 17.5944 53.5107 17.9863L52.2529 17.6924C52.6631 16.0882 52.891 14.8145 52.9365 13.8711L54.3379 13.96ZM75.3516 16.4346H73.4033L73.4102 13.748C71.7832 14.5456 70.9697 15.2907 70.9697 15.9834C70.9697 16.6715 71.7536 17.0156 73.3213 17.0156L74.0801 17.0088C76.1673 17.0088 77.7168 16.9336 78.7285 16.7832L78.8242 18.4922C77.5436 18.6152 76.2881 18.6768 75.0576 18.6768C72.6924 18.6768 71.1064 18.474 70.2998 18.0684C69.4932 17.6673 69.0898 17.0452 69.0898 16.2021C69.0898 14.8167 70.4137 13.4564 73.0615 12.1211C72.943 11.9707 72.7653 11.8955 72.5283 11.8955C72.0999 11.8955 71.5645 12.0482 70.9219 12.3535C70.2839 12.6589 69.5638 13.1624 68.7617 13.8643C68.2057 14.3564 67.807 14.6891 67.5654 14.8623L66.376 13.5771C67.9619 12.4014 69.1605 11.0889 69.9717 9.63965H67.0527V8.01953H70.6826C70.874 7.4681 71.0176 6.95085 71.1133 6.46777L73.123 6.57715C72.9954 7.14225 72.8656 7.62305 72.7334 8.01953H77.2451V9.63965H72.0771C71.9587 9.87663 71.7399 10.2412 71.4209 10.7334C71.8766 10.583 72.3141 10.5078 72.7334 10.5078C73.6631 10.5078 74.333 10.7949 74.7432 11.3691C75.3356 11.1139 76.5843 10.6126 78.4893 9.86523L79.2891 11.4922C78.3913 11.7975 77.0514 12.276 75.2695 12.9277C75.3151 13.2695 75.3379 13.6364 75.3379 14.0283L75.3516 16.4346ZM86.084 14.7393C85.8835 15.9196 85.291 16.8584 84.3066 17.5557C83.3223 18.2529 82.1396 18.6631 80.7588 18.7861L80.2803 17.2754C81.2965 17.1387 82.1579 16.8561 82.8643 16.4277C83.5752 15.9948 84.0013 15.432 84.1426 14.7393H81.8594V6.63184H92.127V14.7393H89.3379V16.5918C89.3379 16.7012 89.3721 16.79 89.4404 16.8584C89.5088 16.9268 89.6751 16.9723 89.9395 16.9951C90.2038 17.0133 90.3952 17.0225 90.5137 17.0225C90.6367 17.0225 90.8304 17.0133 91.0947 16.9951C91.359 16.9723 91.5299 16.9495 91.6074 16.9268C91.6895 16.8994 91.7624 16.8538 91.8262 16.79C91.89 16.7262 91.9378 16.5462 91.9697 16.25C92.0062 15.9492 92.0244 15.5824 92.0244 15.1494L93.624 15.3955V17.0771C93.624 17.501 93.4714 17.8519 93.166 18.1299C92.8607 18.4124 92.4482 18.5605 91.9287 18.5742C91.8057 18.5742 91.5413 18.5833 91.1357 18.6016C90.8304 18.6152 90.5729 18.6221 90.3633 18.6221C90.2083 18.6221 89.9714 18.613 89.6523 18.5947L88.8594 18.5469C88.6497 18.5332 88.4629 18.4876 88.2988 18.4102C88.1348 18.3327 87.9912 18.2279 87.8682 18.0957C87.7497 17.9635 87.6585 17.8086 87.5947 17.6309C87.5355 17.4486 87.5059 17.2458 87.5059 17.0225V14.7393H86.084ZM90.2334 9.03125V8.04688H83.7529V9.03125H90.2334ZM83.7529 11.1846H90.2334V10.2344H83.7529V11.1846ZM90.2334 12.3877H83.7529V13.3516H90.2334V12.3877ZM103.003 16.749C104.115 16.3115 104.671 15.6143 104.671 14.6572C104.671 13.9782 104.395 13.445 103.844 13.0576C103.297 12.6657 102.606 12.4697 101.772 12.4697H101.602C101.237 12.4697 100.809 12.5312 100.316 12.6543C99.8288 12.7773 99.3685 12.9368 98.9355 13.1328C98.5072 13.3288 98.1449 13.5247 97.8486 13.7207C97.557 13.9167 96.8757 14.4111 95.8047 15.2041L94.7109 13.8301C98.4342 11.278 100.815 9.60319 101.854 8.80566H96.0713V7.20605H104.329L105.313 8.25879C104.334 8.91048 102.873 9.90397 100.932 11.2393C101.492 11.0934 101.962 11.0205 102.34 11.0205C103.684 11.0205 104.737 11.3281 105.498 11.9434C106.259 12.554 106.64 13.4336 106.64 14.582C106.64 15.9219 106.1 16.9518 105.02 17.6719C103.944 18.3874 102.527 18.7451 100.768 18.7451C99.6055 18.7451 98.6826 18.5537 97.999 18.1709C97.32 17.7881 96.9805 17.2275 96.9805 16.4893C96.9805 15.8923 97.2699 15.391 97.8486 14.9854C98.432 14.5752 99.0677 14.3701 99.7559 14.3701C101.456 14.3701 102.538 15.1631 103.003 16.749ZM101.239 17.2002C100.943 16.2705 100.403 15.8057 99.6191 15.8057C99.3913 15.8057 99.1885 15.8695 99.0107 15.9971C98.833 16.1201 98.7441 16.2819 98.7441 16.4824C98.7441 16.9837 99.332 17.2344 100.508 17.2344C100.768 17.2344 101.011 17.223 101.239 17.2002Z" fill="white"/>
<defs>
<filter id="filter0_i_15_120" x="0" y="0" width="128" height="28" filterUnits="userSpaceOnUse" color-interpolation-filters="sRGB">
<feFlood flood-opacity="0" result="BackgroundImageFix"/>
<feBlend mode="normal" in="SourceGraphic" in2="BackgroundImageFix" result="shape"/>
<feColorMatrix in="SourceAlpha" type="matrix" values="0 0 0 0 0 0 0 0 0 0 0 0 0 0 0 0 0 0 127 0" result="hardAlpha"/>
<feOffset dy="-1"/>
<feComposite in2="hardAlpha" operator="arithmetic" k2="-1" k3="1"/>
<feColorMatrix type="matrix" values="0 0 0 0 0.823529 0 0 0 0 0.494118 0 0 0 0 0.101961 0 0 0 1 0"/>
<feBlend mode="normal" in2="shape" result="effect1_innerShadow_15_120"/>
</filter>
</defs>
</svg>
